<svg width="580" height="277" viewBox="0 0 580 277" fill="none" xmlns="http://www.w3.org/2000/svg">
<path d="M180 187.3C182.133 187.3 183.8 187.9 185 189.1C186.267 190.3 186.9 191.967 186.9 194.1C186.9 194.633 186.867 195.2 186.8 195.8C186.733 196.333 186.6 196.8 186.4 197.2C185.533 197.067 184.567 196.967 183.5 196.9C182.433 196.767 181.167 196.7 179.7 196.7C176.7 196.7 173.7 196.967 170.7 197.5C167.7 198.033 164.833 198.467 162.1 198.8C159.1 205.867 156.633 212.5 154.7 218.7C152.767 224.9 151.267 231.033 150.2 237.1C147.933 236.567 145.933 235.6 144.2 234.2C142.467 232.8 140.833 230.833 139.3 228.3C139.767 227.233 140.333 225.967 141 224.5C141.667 222.967 142.467 221.067 143.4 218.8C144.333 216.467 145.433 213.667 146.7 210.4C148.033 207.067 149.6 203.1 151.4 198.5C148.6 197.567 146.767 195.933 145.9 193.6C146.233 193.267 147.167 192.9 148.7 192.5C150.233 192.033 152.1 191.533 154.3 191C155.3 188.4 156.167 186.1 156.9 184.1C157.633 182.033 158.3 180.1 158.9 178.3C159.5 176.433 160.033 174.633 160.5 172.9C161.033 171.1 161.5 169.2 161.9 167.2H161.4C158.867 167.2 156.8 166.6 155.2 165.4C153.667 164.2 152.9 162.633 152.9 160.7C152.9 160.167 152.967 159.533 153.1 158.8C153.3 158.067 153.533 157.433 153.8 156.9C155.067 157.1 156.3 157.233 157.5 157.3C158.767 157.367 160.4 157.4 162.4 157.4C166.6 157.4 170.533 157.3 174.2 157.1C177.867 156.833 181.167 156.567 184.1 156.3C187.1 156.033 189.667 155.8 191.8 155.6C193.933 155.333 195.567 155.2 196.7 155.2C198.233 155.2 199.6 156 200.8 157.6C202 159.2 202.933 161.467 203.6 164.4C201.467 164.2 199.733 164.067 198.4 164C197.133 163.933 196 163.9 195 163.9C191.6 163.9 188.467 164.067 185.6 164.4C182.8 164.667 180.133 165 177.6 165.4C177.2 166 176.733 166.767 176.2 167.7C175.733 168.633 175.1 169.967 174.3 171.7C173.5 173.367 172.467 175.567 171.2 178.3C170 181.033 168.467 184.5 166.6 188.7C169.2 188.3 171.667 187.967 174 187.7C176.4 187.433 178.4 187.3 180 187.3ZM191.999 222.3C191.999 221.7 192.033 220.967 192.099 220.1C192.233 219.167 192.433 217.967 192.699 216.5C192.966 214.967 193.299 213.133 193.699 211C194.166 208.867 194.733 206.3 195.399 203.3C195.533 202.633 195.833 201.567 196.299 200.1C196.766 198.633 197.366 197.1 198.099 195.5C198.899 193.833 199.833 192.233 200.899 190.7C202.033 189.167 203.366 188.033 204.899 187.3C206.033 187.567 207.533 188.267 209.399 189.4C211.266 190.467 212.866 191.967 214.199 193.9C212.666 195.633 211.366 197.367 210.299 199.1C209.299 200.833 208.366 202.633 207.499 204.5C206.699 206.367 205.933 208.3 205.199 210.3C204.533 212.3 203.766 214.4 202.899 216.6C202.166 218.467 201.499 220.4 200.899 222.4C200.299 224.333 199.966 226.033 199.899 227.5C199.899 228.7 199.866 229.533 199.799 230C199.799 230.533 199.633 230.8 199.299 230.8C199.033 230.8 198.499 230.633 197.699 230.3C196.899 229.967 196.066 229.467 195.199 228.8C194.399 228.067 193.666 227.167 192.999 226.1C192.333 225.033 191.999 223.767 191.999 222.3ZM211.099 178.9C211.099 178.5 211.199 177.9 211.399 177.1C211.066 176.767 210.766 176.267 210.499 175.6C210.299 174.933 210.199 174.333 210.199 173.8C210.199 173.2 210.266 172.4 210.399 171.4C210.599 170.333 210.833 169.2 211.099 168C211.366 166.8 211.699 165.567 212.099 164.3C212.499 162.967 212.899 161.767 213.299 160.7C214.099 160.7 215.066 160.933 216.199 161.4C217.399 161.8 218.599 162.367 219.799 163.1C220.999 163.767 222.099 164.533 223.099 165.4C224.099 166.2 224.866 166.967 225.399 167.7C224.666 168.433 223.699 169.467 222.499 170.8C221.299 172.067 220.133 173.433 218.999 174.9C217.866 176.3 216.833 177.633 215.899 178.9C214.966 180.167 214.366 181.067 214.099 181.6C213.299 181.467 212.599 181.133 211.999 180.6C211.399 180 211.099 179.433 211.099 178.9ZM220.748 190.7C220.415 190.3 220.115 189.467 219.848 188.2C219.582 186.867 219.448 185.733 219.448 184.8C221.182 184.933 222.848 185.067 224.448 185.2C226.048 185.267 227.515 185.333 228.848 185.4C229.848 183.4 230.915 181.433 232.048 179.5C233.248 177.5 234.382 175.7 235.448 174.1C236.582 172.433 237.615 171.033 238.548 169.9C239.548 168.767 240.315 168.033 240.848 167.7C241.515 167.7 242.348 167.833 243.348 168.1C244.415 168.3 245.482 168.6 246.548 169C247.615 169.333 248.582 169.7 249.448 170.1C250.315 170.5 250.915 170.9 251.248 171.3C249.248 173.833 247.515 176.2 246.048 178.4C244.648 180.533 243.115 183 241.448 185.8C242.782 185.8 244.115 185.767 245.448 185.7C246.848 185.633 248.248 185.533 249.648 185.4C249.982 185.733 250.248 186.167 250.448 186.7C250.648 187.167 250.748 187.667 250.748 188.2C247.482 189.4 243.515 190.067 238.848 190.2C237.182 193.4 235.682 196.6 234.348 199.8C233.082 202.933 231.982 205.967 231.048 208.9C230.182 211.833 229.482 214.6 228.948 217.2C228.482 219.8 228.248 222.133 228.248 224.2C228.248 227.133 229.348 228.767 231.548 229.1C233.548 228.833 235.448 228.333 237.248 227.6C239.048 226.867 240.648 225.933 242.048 224.8C242.448 225.4 242.682 225.9 242.748 226.3C242.348 226.9 241.648 227.6 240.648 228.4C239.715 229.2 238.682 229.967 237.548 230.7C236.415 231.5 235.315 232.167 234.248 232.7C233.182 233.233 232.382 233.533 231.848 233.6C230.182 233.533 228.515 233.167 226.848 232.5C225.182 231.833 223.648 231 222.248 230C220.915 229 219.815 227.9 218.948 226.7C218.082 225.433 217.648 224.2 217.648 223C217.648 221.4 217.848 219.4 218.248 217C218.715 214.533 219.348 211.867 220.148 209C220.948 206.133 221.882 203.133 222.948 200C224.015 196.867 225.182 193.767 226.448 190.7H220.748ZM287.033 232.1C286.699 229.367 286.433 226.4 286.233 223.2C286.099 219.933 286.033 216.9 286.033 214.1C286.033 209.633 286.166 205.367 286.433 201.3C286.766 197.167 287.133 192.867 287.533 188.4C287.999 183.867 288.499 178.967 289.033 173.7C289.566 168.367 290.033 162.233 290.433 155.3C291.299 155.3 292.533 155.567 294.133 156.1C295.799 156.567 297.466 157.133 299.133 157.8C300.799 158.467 302.266 159.167 303.533 159.9C304.799 160.567 305.533 161.133 305.733 161.6C304.599 164.2 303.566 167.633 302.633 171.9C301.766 176.1 301.033 180.7 300.433 185.7C299.833 190.7 299.366 195.833 299.033 201.1C298.699 206.367 298.533 211.3 298.533 215.9C298.533 218.033 298.566 220.133 298.633 222.2C298.699 224.267 298.799 226.167 298.933 227.9C300.333 225.833 301.933 222.9 303.733 219.1C305.599 215.233 307.499 210.933 309.433 206.2C311.433 201.467 313.399 196.533 315.333 191.4C317.333 186.2 319.166 181.267 320.833 176.6C322.499 171.867 323.899 167.633 325.033 163.9C326.233 160.1 327.066 157.233 327.533 155.3C328.399 155.3 329.666 155.567 331.333 156.1C333.066 156.567 334.733 157.133 336.333 157.8C337.999 158.467 339.466 159.167 340.733 159.9C341.999 160.567 342.699 161.133 342.833 161.6C341.699 164.2 340.666 167.633 339.733 171.9C338.866 176.1 338.133 180.7 337.533 185.7C336.933 190.7 336.466 195.833 336.133 201.1C335.799 206.367 335.633 211.3 335.633 215.9C335.633 217.833 335.633 219.767 335.633 221.7C335.699 223.567 335.799 225.267 335.933 226.8C338.066 221.267 340.266 215.8 342.533 210.4C344.866 204.933 347.166 199.733 349.433 194.8C351.699 189.8 353.899 185.167 356.033 180.9C358.166 176.567 360.133 172.733 361.933 169.4C363.733 166 365.299 163.2 366.633 161C367.966 158.8 368.999 157.333 369.733 156.6C371.266 156.8 372.833 157.367 374.433 158.3C376.099 159.167 377.566 160.3 378.833 161.7C376.899 163.233 374.699 165.767 372.233 169.3C369.766 172.767 367.233 176.8 364.633 181.4C362.033 186 359.399 190.9 356.733 196.1C354.133 201.3 351.699 206.367 349.433 211.3C347.166 216.233 345.133 220.833 343.333 225.1C341.599 229.367 340.266 232.8 339.333 235.4C337.599 236.2 335.899 236.6 334.233 236.6C332.099 236.333 330.066 235.8 328.133 235C326.266 234.2 324.933 233.233 324.133 232.1C323.933 231.033 323.766 229.8 323.633 228.4C323.499 226.933 323.399 225.5 323.333 224.1C323.266 222.7 323.199 221.367 323.133 220.1C323.133 218.767 323.133 217.633 323.133 216.7C323.133 210.767 323.366 204.733 323.833 198.6C324.299 192.4 324.866 185.767 325.533 178.7C323.999 183.233 322.299 188.1 320.433 193.3C318.566 198.5 316.599 203.667 314.533 208.8C312.533 213.867 310.466 218.733 308.333 223.4C306.266 228 304.233 232 302.233 235.4C300.499 236.2 298.799 236.6 297.133 236.6C294.999 236.333 292.966 235.8 291.033 235C289.166 234.2 287.833 233.233 287.033 232.1ZM398.958 188.6C399.624 188.6 400.391 188.733 401.258 189C402.191 189.2 403.024 189.5 403.758 189.9C404.491 190.233 405.091 190.6 405.558 191C406.091 191.4 406.358 191.767 406.358 192.1C405.024 194.9 403.791 197.733 402.658 200.6C401.524 203.4 400.558 206.1 399.758 208.7C398.958 211.3 398.324 213.733 397.858 216C397.458 218.267 397.258 220.233 397.258 221.9C397.258 223.767 397.458 225.333 397.858 226.6C398.258 227.8 398.924 228.667 399.858 229.2C399.058 229.733 398.024 230.167 396.758 230.5C395.491 230.833 394.358 231 393.358 231C389.758 231 387.958 228.533 387.958 223.6C387.958 219.8 389.224 214.6 391.758 208C390.424 211.067 388.891 213.967 387.158 216.7C385.424 219.367 383.658 221.733 381.858 223.8C380.058 225.867 378.224 227.567 376.358 228.9C374.558 230.167 372.891 230.933 371.358 231.2C368.891 231.067 366.891 229.9 365.358 227.7C363.824 225.433 363.058 222.567 363.058 219.1C363.058 215.367 363.858 211.433 365.458 207.3C367.058 203.167 369.091 199.333 371.558 195.8C374.091 192.267 376.824 189.333 379.758 187C382.691 184.6 385.524 183.333 388.258 183.2C388.924 183.4 389.658 183.8 390.458 184.4C391.324 185 392.124 185.7 392.858 186.5C393.658 187.3 394.324 188.133 394.858 189C395.391 189.8 395.691 190.5 395.758 191.1C393.091 191.5 390.324 192.8 387.458 195C384.658 197.2 382.091 199.867 379.758 203C377.491 206.067 375.624 209.367 374.158 212.9C372.691 216.433 371.958 219.733 371.958 222.8C371.958 224.067 372.424 224.867 373.358 225.2C375.291 224.8 377.524 223.167 380.058 220.3C382.591 217.367 385.658 212.867 389.258 206.8C389.924 205.6 390.658 204.267 391.458 202.8C392.324 201.333 393.191 199.8 394.058 198.2C394.924 196.6 395.758 195 396.558 193.4C397.424 191.733 398.224 190.133 398.958 188.6ZM448.64 213.5C447.107 218.367 445.573 222.8 444.04 226.8C442.507 230.8 440.873 234.467 439.14 237.8C437.407 241.2 435.54 244.3 433.54 247.1C431.54 249.967 429.34 252.667 426.94 255.2C423.873 258.4 420.707 260.833 417.44 262.5C414.173 264.233 410.907 265.1 407.64 265.1C405.973 265.1 404.307 264.9 402.64 264.5C401.04 264.167 399.54 263.667 398.14 263C396.673 262.4 395.407 261.667 394.34 260.8C393.207 260 392.407 259.133 391.94 258.2C391.94 257.4 392.407 256.7 393.34 256.1C394.14 256.833 394.807 257.4 395.34 257.8C395.873 258.2 396.407 258.533 396.94 258.8C397.407 259.067 397.94 259.233 398.54 259.3C399.073 259.367 399.707 259.4 400.44 259.4C404.24 259.4 407.94 258.267 411.54 256C415.207 253.8 418.64 250.633 421.84 246.5C425.107 242.433 428.073 237.467 430.74 231.6C433.407 225.8 435.673 219.3 437.54 212.1C436.673 213.433 435.607 215.067 434.34 217C433.073 218.933 431.673 220.867 430.14 222.8C428.607 224.667 427.007 226.367 425.34 227.9C423.74 229.433 422.173 230.467 420.64 231C419.573 230.933 418.44 230.7 417.24 230.3C416.107 229.967 415.007 229.467 413.94 228.8C412.94 228.133 412.04 227.333 411.24 226.4C410.44 225.467 409.907 224.4 409.64 223.2C409.64 221.267 409.707 219.733 409.84 218.6C409.973 217.4 410.207 216.1 410.54 214.7C411.14 212.167 412.007 209.3 413.14 206.1C414.34 202.9 415.707 199.767 417.24 196.7C418.84 193.567 420.573 190.667 422.44 188C424.373 185.267 426.373 183.133 428.44 181.6C428.973 181.6 429.64 181.667 430.44 181.8C431.24 181.867 432.073 182.033 432.94 182.3C433.807 182.567 434.64 182.9 435.44 183.3C436.24 183.633 436.94 184.1 437.54 184.7C436.807 185.367 435.207 187.6 432.74 191.4C430.273 195.2 427.54 200.667 424.54 207.8C424.207 208.533 423.807 209.6 423.34 211C422.873 212.4 422.407 213.867 421.94 215.4C421.54 216.933 421.173 218.433 420.84 219.9C420.507 221.367 420.34 222.533 420.34 223.4C420.34 223.933 420.407 224.333 420.54 224.6C420.74 224.867 420.907 225.067 421.04 225.2C422.24 225 423.84 224.033 425.84 222.3C427.84 220.5 430.107 217.733 432.64 214C434.24 211.6 435.707 209.233 437.04 206.9C438.373 204.5 439.673 202.1 440.94 199.7C442.273 197.3 443.64 194.833 445.04 192.3C446.44 189.767 447.94 187.167 449.54 184.5C450.407 184.5 451.34 184.6 452.34 184.8C453.34 185 454.307 185.267 455.24 185.6C456.173 185.867 456.973 186.2 457.64 186.6C458.373 186.933 458.907 187.3 459.24 187.7C457.173 192.1 455.24 196.4 453.44 200.6C451.64 204.8 450.04 209.1 448.64 213.5Z" fill="white"/>
<path d="M184.091 130.358H195V131.679H184.091V130.358Z" fill="#FFDD94"/>
<path d="M187.63 103.561L198.266 105.989L197.981 107.235L188.308 111.124L188.284 111.228L196.635 113.134L196.341 114.422L185.705 111.995L185.99 110.748L195.688 106.843L195.712 106.739L187.341 104.828L187.63 103.561Z" fill="#FFDD94"/>
<path d="M193.78 89.4084L192.724 88.8999L196.274 81.5284L197.33 82.0368L195.841 85.1275L204.614 89.3523L204.041 90.5425L195.268 86.3177L193.78 89.4084Z" fill="#FFDD94"/>
<path d="M213.432 74.6448L204.903 67.8431L207.201 64.9612C207.733 64.2949 208.283 63.8387 208.851 63.5927C209.417 63.3445 209.979 63.2748 210.537 63.3838C211.095 63.4927 211.626 63.7476 212.128 64.1483C212.631 64.5491 212.994 65.0072 213.219 65.5226C213.444 66.038 213.498 66.5967 213.382 67.1986C213.262 67.7983 212.939 68.4286 212.412 69.0893L210.552 71.4215L209.619 70.6776L211.453 68.3787C211.816 67.9234 212.041 67.5038 212.13 67.1198C212.22 66.7332 212.193 66.3799 212.048 66.0601C211.903 65.7354 211.659 65.4368 211.318 65.1645C210.976 64.8922 210.627 64.718 210.27 64.642C209.912 64.566 209.553 64.6129 209.19 64.7826C208.825 64.9501 208.459 65.2643 208.091 65.7252L206.643 67.5409L214.256 73.612L213.432 74.6448ZM212.802 67.5747L218.308 68.5312L217.351 69.7306L211.872 68.7408L212.802 67.5747Z" fill="#FFDD94"/>
<path d="M230.906 49.6398C231.623 50.5394 232.081 51.4463 232.278 52.3606C232.476 53.2749 232.433 54.1355 232.151 54.9426C231.868 55.7496 231.362 56.4432 230.635 57.0233C229.908 57.6034 229.119 57.9416 228.269 58.0379C227.419 58.1342 226.571 57.9842 225.723 57.5881C224.876 57.1919 224.094 56.544 223.376 55.6445C222.659 54.7449 222.201 53.838 222.004 52.9237C221.806 52.0094 221.849 51.1488 222.132 50.3417C222.415 49.5347 222.92 48.8411 223.647 48.261C224.375 47.6809 225.163 47.3427 226.013 47.2464C226.863 47.1501 227.711 47.3001 228.559 47.6962C229.406 48.0924 230.188 48.7403 230.906 49.6398ZM229.906 50.4369C229.317 49.6984 228.697 49.1736 228.045 48.8626C227.395 48.5493 226.757 48.4294 226.129 48.5028C225.505 48.5739 224.934 48.8154 224.418 49.2272C223.901 49.639 223.538 50.1426 223.326 50.7379C223.118 51.331 223.093 51.9801 223.251 52.6852C223.412 53.3881 223.787 54.1089 224.376 54.8474C224.965 55.5859 225.584 56.1118 226.233 56.425C226.886 56.7361 227.524 56.856 228.149 56.7849C228.776 56.7115 229.348 56.4689 229.864 56.0571C230.381 55.6453 230.743 55.1428 230.952 54.5497C231.163 53.9544 231.188 53.3053 231.027 52.6024C230.869 51.8973 230.495 51.1754 229.906 50.4369Z" fill="#FFDD94"/>
<path d="M248.049 45.7605L245.016 47.2212L240.283 37.3924L243.45 35.867C244.404 35.4079 245.314 35.2117 246.182 35.2786C247.048 35.3423 247.839 35.6534 248.553 36.212C249.266 36.7674 249.867 37.5538 250.357 38.5712C250.85 39.595 251.092 40.5643 251.083 41.479C251.073 42.3906 250.815 43.2126 250.308 43.9453C249.8 44.6747 249.047 45.2798 248.049 45.7605ZM245.698 45.5922L247.464 44.7416C248.276 44.3503 248.874 43.8692 249.258 43.2983C249.641 42.7275 249.824 42.0893 249.808 41.3839C249.791 40.6784 249.591 39.9258 249.205 39.1259C248.823 38.3324 248.365 37.7117 247.83 37.2638C247.293 36.8127 246.693 36.5577 246.03 36.4986C245.366 36.4363 244.65 36.59 243.882 36.9598L241.981 37.8751L245.698 45.5922Z" fill="#FFDD94"/>
<path d="M268.851 27.1944L270.139 26.9004L271.746 33.9424C271.912 34.6694 271.889 35.3577 271.676 36.0071C271.467 36.6524 271.09 37.2101 270.545 37.6805C270 38.1474 269.31 38.476 268.475 38.6665C267.641 38.8569 266.877 38.8601 266.183 38.6761C265.488 38.4887 264.904 38.1502 264.432 37.6606C263.962 37.1668 263.645 36.5564 263.479 35.8294L261.871 28.7874L263.159 28.4935L264.743 35.4315C264.861 35.9509 265.081 36.387 265.402 36.7399C265.722 37.0893 266.12 37.3318 266.595 37.4674C267.073 37.5987 267.608 37.5968 268.2 37.4617C268.792 37.3265 269.275 37.0961 269.649 36.7704C270.022 36.4413 270.275 36.0502 270.408 35.5972C270.544 35.14 270.553 34.6518 270.434 34.1324L268.851 27.1944Z" fill="#FFDD94"/>
<path d="M294.599 28.5H293.278C293.2 28.12 293.064 27.7862 292.868 27.4986C292.676 27.2109 292.442 26.9695 292.165 26.7741C291.892 26.5753 291.588 26.4261 291.254 26.3267C290.92 26.2273 290.572 26.1776 290.21 26.1776C289.55 26.1776 288.951 26.3445 288.415 26.6783C287.882 27.0121 287.458 27.5039 287.142 28.1538C286.83 28.8036 286.673 29.6009 286.673 30.5455C286.673 31.4901 286.83 32.2873 287.142 32.9371C287.458 33.587 287.882 34.0788 288.415 34.4126C288.951 34.7464 289.55 34.9134 290.21 34.9134C290.572 34.9134 290.92 34.8636 291.254 34.7642C291.588 34.6648 291.892 34.5174 292.165 34.3221C292.442 34.1232 292.676 33.88 292.868 33.5923C293.064 33.3011 293.2 32.9673 293.278 32.5909H294.599C294.5 33.1484 294.319 33.6474 294.056 34.0877C293.793 34.5281 293.467 34.9027 293.076 35.2116C292.685 35.517 292.247 35.7496 291.76 35.9094C291.277 36.0692 290.761 36.1491 290.21 36.1491C289.28 36.1491 288.452 35.9219 287.728 35.4673C287.004 35.0128 286.434 34.3665 286.018 33.5284C285.603 32.6903 285.395 31.696 285.395 30.5455C285.395 29.3949 285.603 28.4006 286.018 27.5625C286.434 26.7244 287.004 26.0781 287.728 25.6236C288.452 25.169 289.28 24.9418 290.21 24.9418C290.761 24.9418 291.277 25.0217 291.76 25.1815C292.247 25.3413 292.685 25.5756 293.076 25.8846C293.467 26.19 293.793 26.5629 294.056 27.0032C294.319 27.44 294.5 27.9389 294.599 28.5Z" fill="#FFDD94"/>
<path d="M314.193 27.8891L311.765 38.5247L310.478 38.2308L312.905 27.5952L314.193 27.8891Z" fill="#FFDD94"/>
<path d="M339.531 37.3024L334.797 47.1312L333.645 46.5765L332.006 36.2801L331.91 36.2339L328.194 43.951L327.003 43.3778L331.737 33.5491L332.888 34.1038L334.538 44.4286L334.634 44.4748L338.36 36.7385L339.531 37.3024Z" fill="#FFDD94"/>
<path d="M356.08 52.5946C356.212 52.2411 356.292 51.8935 356.319 51.5519C356.351 51.2096 356.327 50.8775 356.248 50.5554C356.172 50.2355 356.038 49.9309 355.846 49.6417C355.654 49.3525 355.404 49.085 355.096 48.8393C354.591 48.4363 354.027 48.2004 353.405 48.1314C352.783 48.0625 352.148 48.1847 351.498 48.4979C350.849 48.8112 350.229 49.337 349.641 50.0756C349.052 50.8141 348.678 51.5359 348.52 52.241C348.362 52.9462 348.39 53.5975 348.604 54.195C348.818 54.7926 349.188 55.3017 349.716 55.7223C350.204 56.112 350.718 56.3511 351.256 56.4395C351.799 56.5274 352.327 56.4628 352.841 56.2458C353.36 56.0281 353.827 55.6583 354.244 55.1364L354.507 55.4554L351.942 53.4096L352.672 52.4934L355.921 55.0838L355.19 56.0001C354.63 56.7025 353.993 57.1937 353.279 57.4738C352.568 57.7561 351.836 57.831 351.083 57.6985C350.335 57.5654 349.623 57.2288 348.945 56.6885C348.19 56.0863 347.668 55.3794 347.38 54.5679C347.094 53.7587 347.053 52.8991 347.256 51.9893C347.462 51.0816 347.924 50.178 348.641 49.2785C349.179 48.6038 349.753 48.0691 350.363 47.6744C350.978 47.2792 351.604 47.0242 352.24 46.9095C352.877 46.7949 353.504 46.8177 354.12 46.9782C354.737 47.1386 355.319 47.4369 355.866 47.8731C356.316 48.2318 356.681 48.6341 356.961 49.0801C357.247 49.5256 357.443 49.9936 357.552 50.4843C357.665 50.9744 357.688 51.4721 357.621 51.9774C357.557 52.48 357.398 52.9691 357.146 53.4448L356.08 52.5946Z" fill="#FFDD94"/>
<path d="M382.51 81.7041L383.566 81.1956L387.116 88.5672L386.06 89.0756L384.571 85.985L375.799 90.2098L375.225 89.0196L383.998 84.7948L382.51 81.7041Z" fill="#FFDD94"/>
<path d="M381.577 105.299L392.213 102.871L392.507 104.159L387.77 105.24L389.065 110.911L393.801 109.83L394.095 111.118L383.459 113.546L383.165 112.258L387.922 111.172L386.628 105.501L381.871 106.587L381.577 105.299Z" fill="#FFDD94"/>
<path d="M385 127.821H395.909V134.405H394.737V129.142H391.051V134.064H389.879V129.142H386.172V134.49H385V127.821Z" fill="#FFDD94"/>
</svg>
